#Comment line ignore any data following # character 
#Hierarchical Translation and Rotation (.htr) file 
[Header]	
#Header keywords are followed by a single value 
FileType HTR		#Single word string
DataType HTRS		#Translation followed by rotation and scale data
FileVersion 1		#integer
NumSegments 84		#integer
NumFrames 2		#integer
DataFrameRate 30		#integer, data frame rate in this file
EulerRotationOrder ZYX
CalibrationUnits mm
RotationUnits Degrees
GlobalAxisofGravity Y
BoneLengthAxis Y
ScaleFactor 1.00
[SegmentNames&Hierarchy]
#CHILD	PARENT
MASTER GLOBAL
root MASTER
chest root
L_mid_tent01 root
R_mid_tent01 root
spine01 root
Bip01_Neck chest
L_humerus chest
R_humerus chest
weapon_bone chest
Bip01_Head Bip01_Neck
eye_left_bone Bip01_Head
eye_right_bone Bip01_Head
L_forearm L_humerus
L_front_hand L_forearm
L_weapon_bone L_forearm
L_front_hand01_01 L_front_hand
L_front_hand02_01 L_front_hand
L_front_hand03_01 L_front_hand
L_front_hand01_02 L_front_hand01_01
L_front_hand02_02 L_front_hand02_01
L_front_hand03_02 L_front_hand03_01
R_forearm R_humerus
R_front_hand R_forearm
R_weapon_bone R_forearm
R_front_hand01_01 R_front_hand
R_front_hand02_01 R_front_hand
R_front_hand03_01 R_front_hand
R_front_hand01_02 R_front_hand01_01
R_front_hand02_02 R_front_hand02_01
R_front_hand03_02 R_front_hand03_01
null_rope01_connect L_mid_tent01
Rope1_Seg01 null_rope01_connect
Rope1_Seg02 Rope1_Seg01
Rope1_Seg03 Rope1_Seg02
Rope1_Seg04 Rope1_Seg03
Rope1_Seg05 Rope1_Seg04
Rope1_Seg06 Rope1_Seg05
Rope1_Seg07 Rope1_Seg06
Rope1_Seg09 Rope1_Seg07
L_mid_hand01 Rope1_Seg09
L_mid_hand02 Rope1_Seg09
L_mid_hand03 Rope1_Seg09
null_rope02_connect R_mid_tent01
Rope2_Seg01 null_rope02_connect
Rope2_Seg02 Rope2_Seg01
Rope2_Seg03 Rope2_Seg02
Rope2_Seg04 Rope2_Seg03
Rope2_Seg05 Rope2_Seg04
Rope2_Seg06 Rope2_Seg05
Rope2_Seg07 Rope2_Seg06
Rope2_Seg09 Rope2_Seg07
R_mid_hand01 Rope2_Seg09
R_mid_hand02 Rope2_Seg09
R_mid_hand03 Rope2_Seg09
spine02 spine01
spine03 spine02
pelvis spine03
null_rope03_connect pelvis
null_rope04_connect pelvis
Rope3_Seg01 null_rope03_connect
Rope3_Seg02 Rope3_Seg01
Rope3_Seg03 Rope3_Seg02
Rope3_Seg04 Rope3_Seg03
Rope3_Seg05 Rope3_Seg04
Rope3_Seg06 Rope3_Seg05
Rope3_Seg07 Rope3_Seg06
Rope3_Seg08 Rope3_Seg07
Rope3_Seg09 Rope3_Seg08
R_rear_hand01 Rope3_Seg09
R_rear_hand02 Rope3_Seg09
R_rear_hand03 Rope3_Seg09
Rope4_Seg01 null_rope04_connect
Rope4_Seg02 Rope4_Seg01
Rope4_Seg03 Rope4_Seg02
Rope4_Seg04 Rope4_Seg03
Rope4_Seg05 Rope4_Seg04
Rope4_Seg06 Rope4_Seg05
Rope4_Seg07 Rope4_Seg06
Rope4_Seg08 Rope4_Seg07
Rope4_Seg09 Rope4_Seg08
L_rear_hand01 Rope4_Seg09
L_rear_hand02 Rope4_Seg09
L_rear_hand03 Rope4_Seg09
[BasePosition]
#SegmentName Tx, Ty, Tz, Rx, Ry, Rz, BoneLength
MASTER 0.000000 0.000000 0.000000 -90.000000 0.000000 0.000000 10.000000 
root 0.000000 0.000000 0.000000 0.000000 0.000000 0.000000 10.000000 
chest 0.000000 0.000000 0.000000 0.000000 0.000000 0.000000 10.000000 
L_mid_tent01 0.000000 0.000000 0.000000 0.000000 0.000000 0.000000 10.000000 
R_mid_tent01 0.000000 0.000000 0.000000 0.000000 0.000000 0.000000 10.000000 
spine01 0.000000 0.000000 0.000000 0.000000 0.000000 0.000000 10.000000 
Bip01_Neck 0.000000 0.000000 0.000000 0.000000 0.000000 0.000000 10.000000 
L_humerus 0.000000 0.000000 0.000000 0.000000 0.000000 0.000000 10.000000 
R_humerus 0.000000 0.000000 0.000000 0.000000 0.000000 0.000000 10.000000 
weapon_bone 0.000000 0.000000 0.000000 0.000000 0.000000 0.000000 10.000000 
Bip01_Head 0.000000 0.000000 0.000000 0.000000 0.000000 0.000000 10.000000 
eye_left_bone 0.000000 0.000000 0.000000 0.000000 0.000000 0.000000 10.000000 
eye_right_bone 0.000000 0.000000 0.000000 0.000000 0.000000 0.000000 10.000000 
L_forearm 0.000000 0.000000 0.000000 0.000000 0.000000 0.000000 10.000000 
L_front_hand 0.000000 0.000000 0.000000 0.000000 0.000000 0.000000 10.000000 
L_weapon_bone 0.000000 0.000000 0.000000 0.000000 0.000000 0.000000 10.000000 
L_front_hand01_01 0.000000 0.000000 0.000000 0.000000 0.000000 0.000000 10.000000 
L_front_hand02_01 0.000000 0.000000 0.000000 0.000000 0.000000 0.000000 10.000000 
L_front_hand03_01 0.000000 0.000000 0.000000 0.000000 0.000000 0.000000 10.000000 
L_front_hand01_02 0.000000 0.000000 0.000000 0.000000 0.000000 0.000000 10.000000 
L_front_hand02_02 0.000000 0.000000 0.000000 0.000000 0.000000 0.000000 10.000000 
L_front_hand03_02 0.000000 0.000000 0.000000 0.000000 0.000000 0.000000 10.000000 
R_forearm 0.000000 0.000000 0.000000 0.000000 0.000000 0.000000 10.000000 
R_front_hand 0.000000 0.000000 0.000000 0.000000 0.000000 0.000000 10.000000 
R_weapon_bone 0.000000 0.000000 0.000000 0.000000 0.000000 0.000000 10.000000 
R_front_hand01_01 0.000000 0.000000 0.000000 0.000000 0.000000 0.000000 10.000000 
R_front_hand02_01 0.000000 0.000000 0.000000 0.000000 0.000000 0.000000 10.000000 
R_front_hand03_01 0.000000 0.000000 0.000000 0.000000 0.000000 0.000000 10.000000 
R_front_hand01_02 0.000000 0.000000 0.000000 0.000000 0.000000 0.000000 10.000000 
R_front_hand02_02 0.000000 0.000000 0.000000 0.000000 0.000000 0.000000 10.000000 
R_front_hand03_02 0.000000 0.000000 0.000000 0.000000 0.000000 0.000000 10.000000 
null_rope01_connect 0.000000 0.000000 0.000000 0.000000 0.000000 0.000000 10.000000 
Rope1_Seg01 0.000000 0.000000 0.000000 0.000000 0.000000 0.000000 10.000000 
Rope1_Seg02 0.000000 0.000000 0.000000 0.000000 0.000000 0.000000 10.000000 
Rope1_Seg03 0.000000 0.000000 0.000000 0.000000 0.000000 0.000000 10.000000 
Rope1_Seg04 0.000000 0.000000 0.000000 0.000000 0.000000 0.000000 10.000000 
Rope1_Seg05 0.000000 0.000000 0.000000 0.000000 0.000000 0.000000 10.000000 
Rope1_Seg06 0.000000 0.000000 0.000000 0.000000 0.000000 0.000000 10.000000 
Rope1_Seg07 0.000000 0.000000 0.000000 0.000000 0.000000 0.000000 10.000000 
Rope1_Seg09 0.000000 0.000000 0.000000 0.000000 0.000000 0.000000 10.000000 
L_mid_hand01 0.000000 0.000000 0.000000 0.000000 0.000000 0.000000 10.000000 
L_mid_hand02 0.000000 0.000000 0.000000 0.000000 0.000000 0.000000 10.000000 
L_mid_hand03 0.000000 0.000000 0.000000 0.000000 0.000000 0.000000 10.000000 
null_rope02_connect 0.000000 0.000000 0.000000 0.000000 0.000000 0.000000 10.000000 
Rope2_Seg01 0.000000 0.000000 0.000000 0.000000 0.000000 0.000000 10.000000 
Rope2_Seg02 0.000000 0.000000 0.000000 0.000000 0.000000 0.000000 10.000000 
Rope2_Seg03 0.000000 0.000000 0.000000 0.000000 0.000000 0.000000 10.000000 
Rope2_Seg04 0.000000 0.000000 0.000000 0.000000 0.000000 0.000000 10.000000 
Rope2_Seg05 0.000000 0.000000 0.000000 0.000000 0.000000 0.000000 10.000000 
Rope2_Seg06 0.000000 0.000000 0.000000 0.000000 0.000000 0.000000 10.000000 
Rope2_Seg07 0.000000 0.000000 0.000000 0.000000 0.000000 0.000000 10.000000 
Rope2_Seg09 0.000000 0.000000 0.000000 0.000000 0.000000 0.000000 10.000000 
R_mid_hand01 0.000000 0.000000 0.000000 0.000000 0.000000 0.000000 10.000000 
R_mid_hand02 0.000000 0.000000 0.000000 0.000000 0.000000 0.000000 10.000000 
R_mid_hand03 0.000000 0.000000 0.000000 0.000000 0.000000 0.000000 10.000000 
spine02 0.000000 0.000000 0.000000 0.000000 0.000000 0.000000 10.000000 
spine03 0.000000 0.000000 0.000000 0.000000 0.000000 0.000000 10.000000 
pelvis 0.000000 0.000000 0.000000 0.000000 0.000000 0.000000 10.000000 
null_rope03_connect 0.000000 0.000000 0.000000 0.000000 0.000000 0.000000 10.000000 
null_rope04_connect 0.000000 0.000000 0.000000 0.000000 0.000000 0.000000 10.000000 
Rope3_Seg01 0.000000 0.000000 0.000000 0.000000 0.000000 0.000000 10.000000 
Rope3_Seg02 0.000000 0.000000 0.000000 0.000000 0.000000 0.000000 10.000000 
Rope3_Seg03 0.000000 0.000000 0.000000 0.000000 0.000000 0.000000 10.000000 
Rope3_Seg04 0.000000 0.000000 0.000000 0.000000 0.000000 0.000000 10.000000 
Rope3_Seg05 0.000000 0.000000 0.000000 0.000000 0.000000 0.000000 10.000000 
Rope3_Seg06 0.000000 0.000000 0.000000 0.000000 0.000000 0.000000 10.000000 
Rope3_Seg07 0.000000 0.000000 0.000000 0.000000 0.000000 0.000000 10.000000 
Rope3_Seg08 0.000000 0.000000 0.000000 0.000000 0.000000 0.000000 10.000000 
Rope3_Seg09 0.000000 0.000000 0.000000 0.000000 0.000000 0.000000 10.000000 
R_rear_hand01 0.000000 0.000000 0.000000 0.000000 0.000000 0.000000 10.000000 
R_rear_hand02 0.000000 0.000000 0.000000 0.000000 0.000000 0.000000 10.000000 
R_rear_hand03 0.000000 0.000000 0.000000 0.000000 0.000000 0.000000 10.000000 
Rope4_Seg01 0.000000 0.000000 0.000000 0.000000 0.000000 0.000000 10.000000 
Rope4_Seg02 0.000000 0.000000 0.000000 0.000000 0.000000 0.000000 10.000000 
Rope4_Seg03 0.000000 0.000000 0.000000 0.000000 0.000000 0.000000 10.000000 
Rope4_Seg04 0.000000 0.000000 0.000000 0.000000 0.000000 0.000000 10.000000 
Rope4_Seg05 0.000000 0.000000 0.000000 0.000000 0.000000 0.000000 10.000000 
Rope4_Seg06 0.000000 0.000000 0.000000 0.000000 0.000000 0.000000 10.000000 
Rope4_Seg07 0.000000 0.000000 0.000000 0.000000 0.000000 0.000000 10.000000 
Rope4_Seg08 0.000000 0.000000 0.000000 0.000000 0.000000 0.000000 10.000000 
Rope4_Seg09 0.000000 0.000000 0.000000 0.000000 0.000000 0.000000 10.000000 
L_rear_hand01 0.000000 0.000000 0.000000 0.000000 0.000000 0.000000 10.000000 
L_rear_hand02 0.000000 0.000000 0.000000 0.000000 0.000000 0.000000 10.000000 
L_rear_hand03 0.000000 0.000000 0.000000 0.000000 0.000000 0.000000 10.000000 
#Beginning of Data. Separated by tabs
#Fr	Tx	Ty	Tz	Rx	Ry	Rz	SF
[MASTER]
10 0.000000 0.000000 0.000000 0.001660 0.001660 0.001660 0.000000
11 0.000000 0.000000 0.000000 0.001660 0.001660 0.001660 0.000000
[root]
10 -16.502304 9.364140 1448.317383 -91.728897 -11.584496 -89.471619 1448.441650
11 -16.502304 9.364140 1448.317383 -91.728889 -11.584499 -89.471611 1448.441650
[chest]
10 -84.512650 -34.090519 0.000000 -2.144813 0.313244 176.732239 91.129311
11 -84.512650 -34.090519 0.000000 -2.144813 0.313244 176.732239 91.129311
[L_mid_tent01]
10 27.299511 22.177458 -249.918259 -28.266106 32.791584 -5.365355 252.381134
11 27.299511 22.177458 -249.918259 -28.266109 32.791588 -5.365358 252.381134
[R_mid_tent01]
10 23.228794 24.509907 226.238495 -156.204071 -32.814335 0.416457 228.744751
11 23.228794 24.509907 226.238495 -156.204071 -32.814346 0.416457 228.744751
[spine01]
10 -0.361383 -0.195265 0.000000 -0.000001 -0.000007 22.052340 0.410763
11 -0.361383 -0.195265 0.000000 -0.000001 -0.000007 22.052340 0.410763
[Bip01_Neck]
10 165.484543 71.581718 0.000119 175.896118 1.177290 24.871183 180.302734
11 165.484543 71.581718 0.000119 175.896118 1.177290 24.871181 180.302734
[L_humerus]
10 -13.983130 -135.272980 -120.471481 139.910034 88.317856 -130.290009 181.680161
11 -13.983130 -135.272980 -120.471481 139.909653 88.317627 -130.290085 181.680161
[R_humerus]
10 -13.983309 -135.273102 125.287651 133.576981 -87.684464 -45.901276 184.909012
11 -13.983309 -135.273102 125.287651 133.576996 -87.684380 -45.901245 184.909012
[weapon_bone]
10 235.964890 -300.705902 0.000000 0.000000 -89.951546 -128.212341 382.234833
11 235.964890 -300.705902 0.000000 0.000000 -89.951546 -128.212341 382.234833
[Bip01_Head]
10 193.865784 99.525146 7.890730 1.727521 4.534425 -43.429157 218.062973
11 193.865784 99.525146 7.890730 1.727521 4.534425 -43.429157 218.062973
[eye_left_bone]
10 -24.626970 125.451866 -64.772606 0.000000 -90.000000 -99.840431 143.318359
11 -24.626970 125.451866 -64.772606 0.000000 -90.000000 -99.840431 143.318359
[eye_right_bone]
10 -24.626970 125.451866 64.327362 0.000000 -89.965736 80.156380 143.117676
11 -24.626970 125.451866 64.327362 0.000000 -89.980217 80.156380 143.117676
[L_forearm]
10 322.776093 0.000000 -0.000119 0.000248 -0.002334 -102.125244 322.776093
11 322.776093 0.000000 -0.000119 0.000248 -0.002334 -102.125252 322.776093
[L_front_hand]
10 241.149185 -0.042021 -3.300071 -179.659958 -2.242151 -0.019832 241.171753
11 241.149185 -0.042021 -3.300071 -179.659958 -2.242151 -0.019832 241.171753
[L_weapon_bone]
10 156.183838 0.000000 0.000000 0.000014 0.000007 0.000001 156.183838
11 156.183838 0.000000 0.000000 0.000014 0.000007 0.000001 156.183838
[L_front_hand01_01]
10 86.095154 20.947098 -0.655860 -0.366594 -0.477154 75.385574 88.609184
11 86.095154 20.947098 -0.655860 -0.366594 -0.477154 75.385574 88.609184
[L_front_hand02_01]
10 86.935165 -11.437475 24.513514 154.399796 -59.883835 -61.369587 91.046425
11 86.935165 -11.437475 24.513514 154.399796 -59.883835 -61.369587 91.046425
[L_front_hand03_01]
10 86.637497 -14.123976 -20.424902 -153.913849 58.118122 -62.702866 90.126129
11 86.637497 -14.123976 -20.424902 -153.913849 58.118122 -62.702850 90.126129
[L_front_hand01_02]
10 71.020905 -0.000179 0.000030 0.000334 -0.002323 -106.379684 71.020905
11 71.020905 -0.000179 0.000030 0.000334 -0.002323 -106.379684 71.020905
[L_front_hand02_02]
10 71.020927 -0.000119 0.000060 0.000334 -0.002323 -106.379684 71.020927
11 71.020927 -0.000119 0.000060 0.000334 -0.002323 -106.379684 71.020927
[L_front_hand03_02]
10 71.020905 -0.000060 0.000060 0.000334 -0.002323 -106.379684 71.020905
11 71.020905 -0.000060 0.000060 0.000334 -0.002323 -106.379684 71.020905
[R_forearm]
10 322.776428 -0.000060 0.000030 0.208463 0.026596 -98.191154 322.776428
11 322.776428 -0.000060 0.000030 0.208463 0.026596 -98.191154 322.776428
[R_front_hand]
10 238.847015 -0.006795 2.210259 -0.270529 1.703932 2.322530 238.857239
11 238.847015 -0.006795 2.210259 -0.270529 1.703932 2.322531 238.857239
[R_weapon_bone]
10 155.664093 0.002503 -0.000030 0.003487 0.001180 -90.988930 155.664078
11 155.664093 0.002503 -0.000030 0.003487 0.001180 -90.988930 155.664078
[R_front_hand01_01]
10 87.624611 14.231146 22.918642 -154.633499 -59.950619 61.746044 91.683487
11 87.624611 14.231146 22.918642 -154.633499 -59.950619 61.746044 91.683487
[R_front_hand02_01]
10 89.356956 14.367283 -19.491137 154.602661 58.302849 63.744389 92.579636
11 89.356956 14.367283 -19.491137 154.602661 58.302849 63.744389 92.579636
[R_front_hand03_01]
10 87.286232 -22.307278 -0.143439 0.162155 -0.423168 -75.767921 90.091743
11 87.286232 -22.307278 -0.143439 0.162155 -0.423168 -75.767921 90.091743
[R_front_hand01_02]
10 71.020905 0.000060 0.000119 0.002323 -0.000334 106.381714 71.020905
11 71.020905 0.000060 0.000119 0.002323 -0.000334 106.381714 71.020905
[R_front_hand02_02]
10 71.020844 -0.000030 -0.000119 0.002323 -0.000334 106.381714 71.020836
11 71.020844 -0.000030 -0.000119 0.002323 -0.000334 106.381714 71.020836
[R_front_hand03_02]
10 71.020905 0.000000 0.000030 0.002323 -0.000334 106.381714 71.020905
11 71.020905 0.000000 0.000030 0.002323 -0.000334 106.381714 71.020905
[null_rope01_connect]
10 328.732483 0.000000 -0.000238 -119.541275 -47.109665 -141.366821 328.732483
11 328.732483 0.000000 -0.000238 -119.541275 -47.109665 -141.366821 328.732483
[Rope1_Seg01]
10 0.000000 0.000000 0.000000 45.974060 -1.663405 -118.963882 0.000000
11 0.000000 0.000000 0.000000 37.699730 1.777570 -115.539894 0.000000
[Rope1_Seg02]
10 139.999863 -0.000179 0.000000 -7.170924 1.459267 4.188061 139.999863
11 139.999863 -0.000179 0.000000 -8.928970 1.345264 5.057893 139.999863
[Rope1_Seg03]
10 139.999924 0.000060 -0.000060 -7.040322 1.014737 5.416854 139.999924
11 139.999924 0.000060 -0.000060 -8.362126 0.616677 6.774212 139.999924
[Rope1_Seg04]
10 139.999924 -0.000060 -0.000119 -4.556399 -3.450200 9.215274 139.999924
11 139.999924 -0.000060 -0.000119 -8.745156 -1.514276 12.493290 139.999924
[Rope1_Seg05]
10 139.999832 0.000119 -0.000060 -9.421197 6.713962 5.450446 139.999832
11 139.999832 0.000119 -0.000060 -2.547884 1.839306 1.430213 139.999832
[Rope1_Seg06]
10 139.999954 0.000119 -0.000060 -9.958789 9.555786 0.870965 139.999954
11 139.999954 0.000119 -0.000060 0.222307 2.720008 -3.421907 139.999954
[Rope1_Seg07]
10 139.999985 0.000060 0.000000 -4.659093 3.096141 1.707841 139.999985
11 139.999985 0.000060 0.000000 -0.426222 0.771797 -0.377095 139.999985
[Rope1_Seg09]
10 121.602913 0.000119 -0.000089 -89.793175 -1.359789 0.847147 121.602913
11 121.602913 0.000119 -0.000089 -89.793175 -1.359789 0.847147 121.602913
[L_mid_hand01]
10 103.859421 1.038730 8.195221 106.855484 -31.239275 -9.461397 104.187431
11 103.859421 1.038730 8.195221 106.855484 -31.239275 -9.461397 104.187431
[L_mid_hand02]
10 105.572853 -4.139662 -10.864139 -142.331345 25.752670 -28.774628 106.211075
11 105.572853 -4.139662 -10.864139 -142.331345 25.752670 -28.774628 106.211075
[L_mid_hand03]
10 104.641464 17.579376 -3.913581 -16.122810 9.734291 34.223598 106.179977
11 104.641464 17.579376 -3.913581 -16.122810 9.734291 34.223598 106.179977
[null_rope02_connect]
10 328.732849 0.000179 -0.000119 -116.029831 50.874489 -29.531246 328.732849
11 328.732849 0.000179 -0.000119 -116.029861 50.874496 -29.531252 328.732849
[Rope2_Seg01]
10 -0.000038 0.000153 0.000000 49.816162 -1.241224 -52.562988 0.000157
11 -0.000038 0.000153 0.000000 32.202717 4.228373 -44.706108 0.000157
[Rope2_Seg02]
10 139.999741 -0.000060 -0.000119 18.812840 -17.455723 -6.030583 139.999756
11 139.999741 -0.000060 -0.000119 30.632076 -12.767608 -9.085708 139.999756
[Rope2_Seg03]
10 140.000107 0.000030 0.000000 1.937071 -24.820967 6.411741 140.000107
11 140.000107 0.000030 0.000000 6.447625 -20.144310 2.427703 140.000107
[Rope2_Seg04]
10 139.999802 0.000000 -0.000060 3.494668 -5.439398 -5.178998 139.999802
11 139.999802 0.000000 -0.000060 4.977918 -13.863273 -1.167386 139.999802
[Rope2_Seg05]
10 139.999985 -0.000060 0.000119 6.573859 13.557213 -19.444942 139.999985
11 139.999985 -0.000060 0.000119 9.353217 1.274451 -15.044042 139.999985
[Rope2_Seg06]
10 139.999893 -0.000030 -0.000119 7.081968 4.032067 -8.961065 139.999893
11 139.999893 -0.000030 -0.000119 5.768939 -0.700429 -7.427218 139.999893
[Rope2_Seg07]
10 139.999893 0.000060 -0.000060 4.692741 1.073045 -4.504664 139.999893
11 139.999893 0.000060 -0.000060 2.903058 -1.271798 -3.261762 139.999893
[Rope2_Seg09]
10 121.338966 0.000089 -0.000060 33.793236 -1.359788 -0.847141 121.338966
11 121.338966 0.000089 -0.000060 33.793236 -1.359788 -0.847141 121.338966
[R_mid_hand01]
10 104.680779 11.144459 -10.335981 -41.523792 25.424656 28.595957 105.778534
11 104.680779 11.144459 -10.335981 -41.523792 25.424656 28.595957 105.778534
[R_mid_hand02]
10 104.070427 2.443552 8.231699 72.847389 -32.746803 10.013901 104.424065
11 104.070427 2.443552 8.231699 72.847389 -32.746803 10.013901 104.424065
[R_mid_hand03]
10 106.028137 -11.221827 -5.996406 -167.901306 10.259192 -37.009720 106.788818
11 106.028137 -11.221827 -5.996406 -167.901306 10.259192 -37.009720 106.788818
[spine02]
10 129.756927 0.001550 0.000119 0.360061 -4.044797 -12.915058 129.756927
11 129.756927 0.001550 0.000119 0.360061 -4.044797 -12.915058 129.756927
[spine03]
10 78.613846 0.087372 -4.898873 1.896495 3.831288 16.473045 78.766380
11 78.613846 0.087372 -4.898873 1.896495 3.831288 16.473045 78.766380
[pelvis]
10 169.435242 0.051022 0.000000 -0.060465 -0.180225 14.087930 169.435257
11 169.435242 0.051022 0.000000 -0.060465 -0.180225 14.087930 169.435257
[null_rope03_connect]
10 -1.257226 -2.466202 137.391083 156.329987 -89.381348 -94.430771 137.418976
11 -1.257226 -2.466202 137.391083 156.329987 -89.381348 -94.430771 137.418976
[null_rope04_connect]
10 -1.259640 -2.480268 -137.844437 156.329987 -89.381348 -94.430771 137.872513
11 -1.259640 -2.480268 -137.844437 156.329987 -89.381348 -94.430771 137.872513
[Rope3_Seg01]
10 0.000010 0.000038 -0.000114 -146.465134 29.989569 -107.212486 0.000121
11 0.000010 0.000038 -0.000114 -144.837204 34.872295 -98.824333 0.000121
[Rope3_Seg02]
10 139.999924 -0.000119 0.000060 2.804261 -2.476522 -13.036433 139.999924
11 139.999924 -0.000119 0.000060 2.667915 0.467616 -12.060826 139.999924
[Rope3_Seg03]
10 139.999924 -0.000119 0.000119 1.894353 -4.142549 -16.541338 139.999924
11 139.999924 -0.000119 0.000119 1.467291 -0.408620 -15.013412 139.999924
[Rope3_Seg04]
10 139.999924 0.000119 0.000000 1.374099 -9.993301 -26.475555 139.999924
11 139.999924 0.000119 0.000000 -0.257983 -5.394197 -25.197462 139.999924
[Rope3_Seg05]
10 139.999924 -0.000238 0.000060 -1.282508 1.964773 -2.751183 139.999924
11 139.999924 -0.000238 0.000060 -1.793583 3.397338 -3.446676 139.999924
[Rope3_Seg06]
10 139.999893 -0.000119 -0.000060 2.978578 14.110306 21.309412 139.999893
11 139.999893 -0.000119 -0.000060 2.820680 12.716603 20.758577 139.999893
[Rope3_Seg07]
10 139.999771 0.000060 -0.000119 1.940523 10.303968 14.812830 139.999771
11 139.999771 0.000060 -0.000119 1.662804 9.330190 14.337072 139.999771
[Rope3_Seg08]
10 139.999985 -0.000060 0.000000 1.001563 4.548450 5.706285 139.999985
11 139.999985 -0.000060 0.000000 0.943604 4.353679 5.612785 139.999985
[Rope3_Seg09]
10 90.185997 -0.000179 -0.000060 89.793228 -1.359877 -0.847183 90.185997
11 90.185997 -0.000179 -0.000060 89.793228 -1.359877 -0.847183 90.185997
[R_rear_hand01]
10 103.366196 -6.073594 -10.757982 -161.551193 16.666374 -30.088671 104.101845
11 103.366196 -6.073594 -10.757982 -161.551193 16.666374 -30.088671 104.101845
[R_rear_hand02]
10 100.509819 12.039542 -7.992327 -34.280552 19.289745 28.875523 101.543350
11 100.509819 12.039542 -7.992327 -34.280552 19.289745 28.875523 101.543350
[R_rear_hand03]
10 101.539970 5.215704 5.435467 83.366440 -30.933914 7.284830 101.819031
11 101.539970 5.215704 5.435467 83.366440 -30.933914 7.284830 101.819031
[Rope4_Seg01]
10 0.000010 0.000038 -0.000114 51.841629 20.550686 -88.546455 0.000121
11 0.000010 0.000038 -0.000114 54.135487 24.341017 -85.624573 0.000121
[Rope4_Seg02]
10 139.999985 0.000060 0.000119 0.120542 -5.597795 -2.633759 139.999985
11 139.999985 0.000060 0.000119 -0.351983 -3.665452 -0.546227 139.999985
[Rope4_Seg03]
10 139.999924 0.000000 -0.000238 0.123864 -5.206497 -2.360717 139.999924
11 139.999924 0.000000 -0.000238 -0.287146 -3.214197 -0.287146 139.999924
[Rope4_Seg04]
10 139.999985 0.000000 0.000119 0.149303 -5.626939 -2.298449 139.999985
11 139.999985 0.000000 0.000119 -0.379291 -2.444394 0.697368 139.999985
[Rope4_Seg05]
10 139.999802 -0.000060 -0.000119 0.100939 -1.955790 -1.469184 139.999802
11 139.999802 -0.000060 -0.000119 0.223397 -4.293325 -2.481488 139.999802
[Rope4_Seg06]
10 139.999924 0.000000 0.000060 0.082321 0.743906 -0.527008 139.999924
11 139.999924 0.000000 0.000060 0.340598 -3.581314 -3.240539 139.999924
[Rope4_Seg07]
10 139.999802 0.000000 0.000000 0.125490 -0.047296 -0.458345 139.999802
11 139.999802 0.000000 0.000000 0.186698 -1.989224 -1.539972 139.999802
[Rope4_Seg08]
10 139.999924 0.000000 0.000119 -1.456896 -0.165664 -0.322676 139.999924
11 139.999924 0.000000 0.000119 -1.438463 -1.196421 -0.873674 139.999924
[Rope4_Seg09]
10 90.185791 0.000060 0.000060 -135.617828 2.228885 0.850567 90.185791
11 90.185791 0.000060 0.000060 -135.617828 2.228885 0.850567 90.185791
[L_rear_hand01]
10 101.696655 -8.392275 -7.654577 -34.454281 -18.946800 151.655121 102.329041
11 101.696655 -8.392275 -7.654577 -34.454281 -18.946800 151.655121 102.329041
[L_rear_hand02]
10 102.726799 -1.568258 5.773216 83.407906 30.330435 172.796509 102.900848
11 102.726799 -1.568258 5.773216 83.407906 30.330435 172.796509 102.900848
[L_rear_hand03]
10 104.552910 9.721220 -10.420293 -161.379868 -16.473232 -150.512238 105.519653
11 104.552910 9.721220 -10.420293 -161.379868 -16.473232 -150.512238 105.519653
